<svg width="50" height="50" fill="none" xmlns="http://www.w3.org/2000/svg"><path d="M23.821.86a2 2 0 0 1 2.358 0l4.86 3.545a2 2 0 0 0 1.182.384l6.015-.012a2 2 0 0 1 1.907 1.386l1.848 5.724a2 2 0 0 0 .73 1.006l4.873 3.526a2 2 0 0 1 .729 2.242l-1.87 5.717a2 2 0 0 0 0 1.244l1.87 5.717a2 2 0 0 1-.729 2.242l-4.873 3.526a2 2 0 0 0-.73 1.006l-1.848 5.724a2 2 0 0 1-1.907 1.386l-6.015-.012a2 2 0 0 0-1.183.384l-4.86 3.545a2 2 0 0 1-2.357 0l-4.86-3.545a2 2 0 0 0-1.182-.384l-6.015.012a2 2 0 0 1-1.907-1.386L8.01 38.113a2 2 0 0 0-.73-1.006l-4.873-3.526a2 2 0 0 1-.729-2.242l1.87-5.717a2 2 0 0 0 0-1.244l-1.87-5.717a2 2 0 0 1 .728-2.242l4.874-3.526a2 2 0 0 0 .73-1.006l1.848-5.724a2 2 0 0 1 1.907-1.386l6.015.012a2 2 0 0 0 1.183-.384L23.822.86Z" fill="#DB3737"/><path d="M12.396 30a.287.287 0 0 1-.192-.072.272.272 0 0 1-.072-.18c0-.024.004-.048.012-.072a.303.303 0 0 1 .036-.072l2.616-3.888-2.424-3.72a.32.32 0 0 1-.036-.144.23.23 0 0 1 .072-.168.227.227 0 0 1 .18-.084h1.74c.12 0 .212.032.276.096a.826.826 0 0 1 .144.156l1.428 2.172 1.452-2.172c.032-.048.08-.1.144-.156.064-.064.156-.096.276-.096h1.656c.064 0 .12.028.168.084a.223.223 0 0 1 .036.312l-2.436 3.708 2.64 3.9a.129.129 0 0 1 .024.072.227.227 0 0 1 .012.072.272.272 0 0 1-.072.18.244.244 0 0 1-.18.072h-1.788a.457.457 0 0 1-.288-.084.905.905 0 0 1-.132-.156l-1.584-2.304-1.572 2.304a.905.905 0 0 1-.132.156c-.064.056-.156.084-.276.084h-1.728ZM21.425 30a.292.292 0 0 1-.216-.084.335.335 0 0 1-.084-.228V21.9c0-.088.028-.16.084-.216a.32.32 0 0 1 .216-.084h1.548c.088 0 .16.028.216.084a.274.274 0 0 1 .096.216v4.824l3.408-4.896a.484.484 0 0 1 .156-.156.41.41 0 0 1 .252-.072h1.392c.08 0 .148.028.204.084a.274.274 0 0 1 .096.216v7.8c0 .08-.032.152-.096.216a.278.278 0 0 1-.204.084h-1.548a.335.335 0 0 1-.228-.084.32.32 0 0 1-.084-.216v-4.656l-3.408 4.728a.826.826 0 0 1-.144.156c-.056.048-.144.072-.264.072h-1.392ZM32.625 30a.292.292 0 0 1-.216-.084.32.32 0 0 1-.084-.216v-6.216h-2.136a.292.292 0 0 1-.216-.084.32.32 0 0 1-.084-.216V21.9c0-.088.028-.16.084-.216a.292.292 0 0 1 .216-.084h6.456c.088 0 .16.028.216.084a.292.292 0 0 1 .084.216v1.284a.32.32 0 0 1-.084.216.292.292 0 0 1-.216.084h-2.136V29.7a.32.32 0 0 1-.084.216.292.292 0 0 1-.216.084h-1.584Z" fill="#fff"/></svg>