<svg width="50" height="51" fill="none" xmlns="http://www.w3.org/2000/svg"><path d="M23.821 1.86a2 2 0 0 1 2.358 0l4.86 3.545a2 2 0 0 0 1.182.384l6.015-.012a2 2 0 0 1 1.907 1.386l1.848 5.724a2 2 0 0 0 .73 1.006l4.873 3.526a2 2 0 0 1 .729 2.242l-1.87 5.717a2 2 0 0 0 0 1.244l1.87 5.717a2 2 0 0 1-.729 2.242l-4.873 3.526a2 2 0 0 0-.73 1.006l-1.848 5.724a2 2 0 0 1-1.907 1.386l-6.015-.012a2 2 0 0 0-1.183.384l-4.86 3.545a2 2 0 0 1-2.357 0l-4.86-3.545a2 2 0 0 0-1.182-.384l-6.015.012a2 2 0 0 1-1.907-1.386L8.01 39.113a2 2 0 0 0-.73-1.006l-4.873-3.526a2 2 0 0 1-.729-2.242l1.87-5.717a2 2 0 0 0 0-1.244l-1.87-5.717a2 2 0 0 1 .728-2.242l4.874-3.526a2 2 0 0 0 .73-1.006l1.848-5.724a2 2 0 0 1 1.907-1.386l6.015.012a2 2 0 0 0 1.183-.384l4.86-3.545Z" fill="#5697D3"/><path d="M11.325 31.1a.317.317 0 0 1-.234-.091.317.317 0 0 1-.091-.234v-8.45c0-.095.03-.173.091-.234a.317.317 0 0 1 .234-.091h1.378c.147 0 .251.035.312.104.07.06.113.108.13.143l3.172 5.005v-4.927c0-.095.03-.173.091-.234a.317.317 0 0 1 .234-.091h1.56c.095 0 .173.03.234.091.06.06.091.139.091.234v8.45c0 .087-.03.165-.091.234a.317.317 0 0 1-.234.091h-1.391c-.139 0-.243-.035-.312-.104-.06-.07-.1-.117-.117-.143l-3.172-4.81v4.732c0 .095-.03.173-.091.234a.317.317 0 0 1-.234.091h-1.56ZM20.669 31.1a.316.316 0 0 1-.234-.091.317.317 0 0 1-.091-.234v-8.45c0-.095.03-.173.09-.234A.316.316 0 0 1 20.67 22h6.07c.096 0 .174.03.235.091.06.06.09.139.09.234v1.222c0 .095-.03.173-.09.234a.317.317 0 0 1-.234.091h-4.147v1.755h3.86c.096 0 .174.035.235.104.06.06.09.139.09.234v1.131c0 .087-.03.165-.09.234a.317.317 0 0 1-.234.091h-3.861v1.807h4.25c.096 0 .174.03.235.091.06.06.09.139.09.234v1.222c0 .095-.03.173-.09.234a.316.316 0 0 1-.234.091h-6.175ZM30.102 31.1a.474.474 0 0 1-.35-.13.529.529 0 0 1-.156-.299l-1.418-8.307a.115.115 0 0 1-.012-.052v-.039c0-.07.026-.13.078-.182a.273.273 0 0 1 .195-.091h1.611c.243 0 .377.095.403.286l.846 5.083.935-3.003a.86.86 0 0 1 .13-.221c.061-.087.16-.13.3-.13h.935c.148 0 .252.043.313.13.06.078.1.152.117.221l.935 2.99.846-5.07c.026-.19.16-.286.402-.286h1.612c.079 0 .144.03.196.091a.25.25 0 0 1 .077.182v.091l-1.416 8.307a.529.529 0 0 1-.156.299.474.474 0 0 1-.352.13h-1.235c-.147 0-.26-.039-.338-.117a.651.651 0 0 1-.156-.221l-1.313-3.718-1.313 3.718a.651.651 0 0 1-.155.221c-.07.078-.178.117-.326.117h-1.235Z" fill="#fff"/></svg>