<svg width="21" height="18" fill="none" xmlns="http://www.w3.org/2000/svg"><path fill-rule="evenodd" clip-rule="evenodd" d="M.5 1a1 1 0 0 1 1-1h2.39a1 1 0 0 1 .937.653L5.697 3H19.5a1 1 0 0 1 .968 1.251l-1.075 4.143a3 3 0 0 1-2.904 2.246H7.736l.24.69a1 1 0 0 0 .945.67H16a1 1 0 1 1 0 2H8.92a3 3 0 0 1-2.832-2.012l-.704-2.019a1 1 0 0 1-.029-.1L4.041 4.29 3.193 2H1.5a1 1 0 0 1-1-1Zm5.763 4 .857 3.64h9.37a1 1 0 0 0 .967-.749L18.207 5H6.263ZM9.5 16.5a1.5 1.5 0 1 1-3 0 1.5 1.5 0 0 1 3 0ZM16 18a1.5 1.5 0 1 0 0-3 1.5 1.5 0 0 0 0 3Z" fill="#000"/></svg>