<svg xmlns="http://www.w3.org/2000/svg" xmlns:xlink="http://www.w3.org/1999/xlink"><symbol id="arrow-icon"><g fill="none"><path d="m1 1 9 9.5L1 20" stroke="#000" stroke-width="2" stroke-linecap="round"/></g></symbol><symbol id="hit-icon"><g fill="none"><path d="M23.821.86a2 2 0 0 1 2.358 0l4.86 3.545a2 2 0 0 0 1.182.384l6.015-.012a2 2 0 0 1 1.907 1.386l1.848 5.724a2 2 0 0 0 .73 1.006l4.873 3.526a2 2 0 0 1 .729 2.242l-1.87 5.717a2 2 0 0 0 0 1.244l1.87 5.717a2 2 0 0 1-.729 2.242l-4.873 3.526a2 2 0 0 0-.73 1.006l-1.848 5.724a2 2 0 0 1-1.907 1.386l-6.015-.012a2 2 0 0 0-1.183.384l-4.86 3.545a2 2 0 0 1-2.357 0l-4.86-3.545a2 2 0 0 0-1.182-.384l-6.015.012a2 2 0 0 1-1.907-1.386L8.01 38.113a2 2 0 0 0-.73-1.006l-4.873-3.526a2 2 0 0 1-.729-2.242l1.87-5.717a2 2 0 0 0 0-1.244l-1.87-5.717a2 2 0 0 1 .728-2.242l4.874-3.526a2 2 0 0 0 .73-1.006l1.848-5.724a2 2 0 0 1 1.907-1.386l6.015.012a2 2 0 0 0 1.183-.384L23.822.86Z" fill="#DB3737"/><path d="M12.396 30a.287.287 0 0 1-.192-.072.272.272 0 0 1-.072-.18c0-.024.004-.048.012-.072a.303.303 0 0 1 .036-.072l2.616-3.888-2.424-3.72a.32.32 0 0 1-.036-.144.23.23 0 0 1 .072-.168.227.227 0 0 1 .18-.084h1.74c.12 0 .212.032.276.096a.826.826 0 0 1 .144.156l1.428 2.172 1.452-2.172c.032-.048.08-.1.144-.156.064-.064.156-.096.276-.096h1.656c.064 0 .12.028.168.084a.223.223 0 0 1 .036.312l-2.436 3.708 2.64 3.9a.129.129 0 0 1 .024.072.227.227 0 0 1 .012.072.272.272 0 0 1-.072.18.244.244 0 0 1-.18.072h-1.788a.457.457 0 0 1-.288-.084.905.905 0 0 1-.132-.156l-1.584-2.304-1.572 2.304a.905.905 0 0 1-.132.156c-.064.056-.156.084-.276.084h-1.728ZM21.425 30a.292.292 0 0 1-.216-.084.335.335 0 0 1-.084-.228V21.9c0-.088.028-.16.084-.216a.32.32 0 0 1 .216-.084h1.548c.088 0 .16.028.216.084a.274.274 0 0 1 .096.216v4.824l3.408-4.896a.484.484 0 0 1 .156-.156.41.41 0 0 1 .252-.072h1.392c.08 0 .148.028.204.084a.274.274 0 0 1 .096.216v7.8c0 .08-.032.152-.096.216a.278.278 0 0 1-.204.084h-1.548a.335.335 0 0 1-.228-.084.32.32 0 0 1-.084-.216v-4.656l-3.408 4.728a.826.826 0 0 1-.144.156c-.056.048-.144.072-.264.072h-1.392ZM32.625 30a.292.292 0 0 1-.216-.084.32.32 0 0 1-.084-.216v-6.216h-2.136a.292.292 0 0 1-.216-.084.32.32 0 0 1-.084-.216V21.9c0-.088.028-.16.084-.216a.292.292 0 0 1 .216-.084h6.456c.088 0 .16.028.216.084a.292.292 0 0 1 .084.216v1.284a.32.32 0 0 1-.084.216.292.292 0 0 1-.216.084h-2.136V29.7a.32.32 0 0 1-.084.216.292.292 0 0 1-.216.084h-1.584Z" fill="#fff"/></g></symbol><symbol id="like-icon"><g fill="none"><path d="M10 17c-3.594-1.54-8.486-5.943-8.985-10.995C.787 3.705 3.26 1 5.507 1 7.612 1 9.101 2.155 10 4.08 10.899 2.155 12.388 1 14.493 1c2.246 0 4.72 2.704 4.492 5.005C18.486 11.057 13.595 15.46 10 17Z" stroke="#000" stroke-width="2"/></g></symbol><symbol id="minus-icon"><g fill="none"><path fill-rule="evenodd" clip-rule="evenodd" d="M0 1c0-.552.336-1 .75-1h10.5c.414 0 .75.448.75 1s-.336 1-.75 1H.75C.336 2 0 1.552 0 1Z" fill="#8D9295"/></g></symbol><symbol id="new-icon"><g fill="none"><path d="M23.821 1.86a2 2 0 0 1 2.358 0l4.86 3.545a2 2 0 0 0 1.182.384l6.015-.012a2 2 0 0 1 1.907 1.386l1.848 5.724a2 2 0 0 0 .73 1.006l4.873 3.526a2 2 0 0 1 .729 2.242l-1.87 5.717a2 2 0 0 0 0 1.244l1.87 5.717a2 2 0 0 1-.729 2.242l-4.873 3.526a2 2 0 0 0-.73 1.006l-1.848 5.724a2 2 0 0 1-1.907 1.386l-6.015-.012a2 2 0 0 0-1.183.384l-4.86 3.545a2 2 0 0 1-2.357 0l-4.86-3.545a2 2 0 0 0-1.182-.384l-6.015.012a2 2 0 0 1-1.907-1.386L8.01 39.113a2 2 0 0 0-.73-1.006l-4.873-3.526a2 2 0 0 1-.729-2.242l1.87-5.717a2 2 0 0 0 0-1.244l-1.87-5.717a2 2 0 0 1 .728-2.242l4.874-3.526a2 2 0 0 0 .73-1.006l1.848-5.724a2 2 0 0 1 1.907-1.386l6.015.012a2 2 0 0 0 1.183-.384l4.86-3.545Z" fill="#5697D3"/><path d="M11.325 31.1a.317.317 0 0 1-.234-.091.317.317 0 0 1-.091-.234v-8.45c0-.095.03-.173.091-.234a.317.317 0 0 1 .234-.091h1.378c.147 0 .251.035.312.104.07.06.113.108.13.143l3.172 5.005v-4.927c0-.095.03-.173.091-.234a.317.317 0 0 1 .234-.091h1.56c.095 0 .173.03.234.091.06.06.091.139.091.234v8.45c0 .087-.03.165-.091.234a.317.317 0 0 1-.234.091h-1.391c-.139 0-.243-.035-.312-.104-.06-.07-.1-.117-.117-.143l-3.172-4.81v4.732c0 .095-.03.173-.091.234a.317.317 0 0 1-.234.091h-1.56ZM20.669 31.1a.316.316 0 0 1-.234-.091.317.317 0 0 1-.091-.234v-8.45c0-.095.03-.173.09-.234A.316.316 0 0 1 20.67 22h6.07c.096 0 .174.03.235.091.06.06.09.139.09.234v1.222c0 .095-.03.173-.09.234a.317.317 0 0 1-.234.091h-4.147v1.755h3.86c.096 0 .174.035.235.104.06.06.09.139.09.234v1.131c0 .087-.03.165-.09.234a.317.317 0 0 1-.234.091h-3.861v1.807h4.25c.096 0 .174.03.235.091.06.06.09.139.09.234v1.222c0 .095-.03.173-.09.234a.316.316 0 0 1-.234.091h-6.175ZM30.102 31.1a.474.474 0 0 1-.35-.13.529.529 0 0 1-.156-.299l-1.418-8.307a.115.115 0 0 1-.012-.052v-.039c0-.07.026-.13.078-.182a.273.273 0 0 1 .195-.091h1.611c.243 0 .377.095.403.286l.846 5.083.935-3.003a.86.86 0 0 1 .13-.221c.061-.087.16-.13.3-.13h.935c.148 0 .252.043.313.13.06.078.1.152.117.221l.935 2.99.846-5.07c.026-.19.16-.286.402-.286h1.612c.079 0 .144.03.196.091a.25.25 0 0 1 .077.182v.091l-1.416 8.307a.529.529 0 0 1-.156.299.474.474 0 0 1-.352.13h-1.235c-.147 0-.26-.039-.338-.117a.651.651 0 0 1-.156-.221l-1.313-3.718-1.313 3.718a.651.651 0 0 1-.155.221c-.07.078-.178.117-.326.117h-1.235Z" fill="#fff"/></g></symbol><symbol id="plus-icon"><g fill="none"><path stroke="#8D9295" stroke-width="2" stroke-linecap="round" d="M6 1v10M11 6H1"/></g></symbol><symbol id="substract-icon"><g fill="none"><path d="M1.11 13.768 4.355 3.65l3.51 10.117M12.134 13.768 15.379 3.65l3.51 10.117" stroke="#000" stroke-width="1.5" stroke-linejoin="round"/><circle cx="10" cy="3.651" r="1.553" stroke="#000" stroke-width="1.5"/><path d="M11.914 3.54h1.485M6.6 3.54h1.486" stroke="#000" stroke-width="1.5" stroke-linecap="round"/><path d="M4.488 17.231A3.74 3.74 0 0 1 .827 14.25H8.15a3.74 3.74 0 0 1-3.662 2.981ZM15.512 17.231a3.74 3.74 0 0 1-3.661-2.981h7.322a3.74 3.74 0 0 1-3.66 2.981Z" stroke="#000" stroke-width="1.5"/></g></symbol><symbol id="union-icon"><g fill="none"><path fill-rule="evenodd" clip-rule="evenodd" d="M.5 1a1 1 0 0 1 1-1h2.39a1 1 0 0 1 .937.653L5.697 3H19.5a1 1 0 0 1 .968 1.251l-1.075 4.143a3 3 0 0 1-2.904 2.246H7.736l.24.69a1 1 0 0 0 .945.67H16a1 1 0 1 1 0 2H8.92a3 3 0 0 1-2.832-2.012l-.704-2.019a1 1 0 0 1-.029-.1L4.041 4.29 3.193 2H1.5a1 1 0 0 1-1-1Zm5.763 4 .857 3.64h9.37a1 1 0 0 0 .967-.749L18.207 5H6.263ZM9.5 16.5a1.5 1.5 0 1 1-3 0 1.5 1.5 0 0 1 3 0ZM16 18a1.5 1.5 0 1 0 0-3 1.5 1.5 0 0 0 0 3Z" fill="#000"/></g></symbol></svg>